<?xml version="1.0" standalone="no"?>
<!DOCTYPE svg PUBLIC "-//W3C//DTD SVG 20010904//EN"
 "http://www.w3.org/TR/2001/REC-SVG-20010904/DTD/svg10.dtd">
<svg version="1.0" xmlns="http://www.w3.org/2000/svg"
 width="131.000000pt" height="131.000000pt" viewBox="0 0 131.000000 131.000000"
 preserveAspectRatio="xMidYMid meet">
<metadata>
Created by potrace 1.11, written by Peter Selinger 2001-2013
</metadata>
<g transform="translate(0.000000,131.000000) scale(0.100000,-0.100000)"
fill="#000000" stroke="none">
<path d="M502 1289 c-293 -75 -491 -327 -493 -627 -2 -269 164 -511 419 -611
28 -11 64 -23 80 -26 15 -3 38 -7 52 -10 31 -7 172 -7 191 -1 8 3 31 7 52 10
53 8 153 50 214 91 272 180 368 538 223 830 -82 167 -222 285 -400 340 -84 25
-248 28 -338 4z"/>
</g>
</svg>
